<mxfile host="Electron" agent="Mozilla/5.0 (Windows NT 10.0; Win64; x64) AppleWebKit/537.36 (KHTML, like Gecko) draw.io/28.1.2 Chrome/138.0.7204.243 Electron/37.4.0 Safari/537.36" version="28.1.2" pages="2">
  <diagram name="Layer Structure" id="PaTMS0mXZItTdwB3mvPL">
    <mxGraphModel dx="1410" dy="825" grid="1" gridSize="10" guides="1" tooltips="1" connect="1" arrows="1" fold="1" page="1" pageScale="1" pageWidth="827" pageHeight="1169" math="0" shadow="0">
      <root>
        <mxCell id="0" />
        <mxCell id="1" parent="0" />
        <mxCell id="t_3xQdhQJBQ7S3GY_MiX-1" value="UI Layer" style="rounded=0;whiteSpace=wrap;html=1;align=left;verticalAlign=top;" vertex="1" parent="1">
          <mxGeometry x="120" y="80" width="600" height="130" as="geometry" />
        </mxCell>
        <mxCell id="t_3xQdhQJBQ7S3GY_MiX-2" value="View" style="rounded=0;whiteSpace=wrap;html=1;" vertex="1" parent="1">
          <mxGeometry x="120" y="100" width="600" height="30" as="geometry" />
        </mxCell>
        <mxCell id="t_3xQdhQJBQ7S3GY_MiX-3" value="ViewModel" style="rounded=0;whiteSpace=wrap;html=1;" vertex="1" parent="1">
          <mxGeometry x="120" y="160" width="600" height="30" as="geometry" />
        </mxCell>
        <mxCell id="t_3xQdhQJBQ7S3GY_MiX-4" value="&lt;span style=&quot;background-color: transparent; color: light-dark(rgb(0, 0, 0), rgb(255, 255, 255));&quot;&gt;Application&lt;/span&gt;" style="rounded=0;whiteSpace=wrap;html=1;align=left;verticalAlign=top;" vertex="1" parent="1">
          <mxGeometry x="120" y="260" width="600" height="140" as="geometry" />
        </mxCell>
        <mxCell id="t_3xQdhQJBQ7S3GY_MiX-5" value="Domain" style="rounded=0;whiteSpace=wrap;html=1;align=left;verticalAlign=top;" vertex="1" parent="1">
          <mxGeometry x="120" y="445" width="600" height="140" as="geometry" />
        </mxCell>
        <mxCell id="t_3xQdhQJBQ7S3GY_MiX-6" value="Infrastructure" style="rounded=0;whiteSpace=wrap;html=1;align=left;verticalAlign=top;" vertex="1" parent="1">
          <mxGeometry x="120" y="630" width="600" height="140" as="geometry" />
        </mxCell>
        <mxCell id="t_3xQdhQJBQ7S3GY_MiX-7" value="" style="endArrow=classic;html=1;rounded=0;exitX=0.5;exitY=1;exitDx=0;exitDy=0;entryX=0.5;entryY=0;entryDx=0;entryDy=0;" edge="1" parent="1" source="t_3xQdhQJBQ7S3GY_MiX-2" target="t_3xQdhQJBQ7S3GY_MiX-3">
          <mxGeometry width="50" height="50" relative="1" as="geometry">
            <mxPoint x="450" y="350" as="sourcePoint" />
            <mxPoint x="500" y="300" as="targetPoint" />
          </mxGeometry>
        </mxCell>
        <mxCell id="t_3xQdhQJBQ7S3GY_MiX-8" value="" style="endArrow=classic;html=1;rounded=0;exitX=0.5;exitY=1;exitDx=0;exitDy=0;entryX=0.5;entryY=0;entryDx=0;entryDy=0;" edge="1" parent="1" source="t_3xQdhQJBQ7S3GY_MiX-1" target="t_3xQdhQJBQ7S3GY_MiX-4">
          <mxGeometry width="50" height="50" relative="1" as="geometry">
            <mxPoint x="450" y="350" as="sourcePoint" />
            <mxPoint x="500" y="300" as="targetPoint" />
          </mxGeometry>
        </mxCell>
        <mxCell id="t_3xQdhQJBQ7S3GY_MiX-9" value="" style="endArrow=classic;html=1;rounded=0;exitX=0.5;exitY=1;exitDx=0;exitDy=0;entryX=0.5;entryY=0;entryDx=0;entryDy=0;" edge="1" parent="1" source="t_3xQdhQJBQ7S3GY_MiX-4" target="t_3xQdhQJBQ7S3GY_MiX-5">
          <mxGeometry width="50" height="50" relative="1" as="geometry">
            <mxPoint x="530" y="340" as="sourcePoint" />
            <mxPoint x="530" y="390" as="targetPoint" />
          </mxGeometry>
        </mxCell>
        <mxCell id="t_3xQdhQJBQ7S3GY_MiX-10" value="" style="endArrow=classic;html=1;rounded=0;exitX=0.5;exitY=1;exitDx=0;exitDy=0;entryX=0.5;entryY=0;entryDx=0;entryDy=0;" edge="1" parent="1" source="t_3xQdhQJBQ7S3GY_MiX-5" target="t_3xQdhQJBQ7S3GY_MiX-6">
          <mxGeometry width="50" height="50" relative="1" as="geometry">
            <mxPoint x="450" y="560" as="sourcePoint" />
            <mxPoint x="450" y="605" as="targetPoint" />
          </mxGeometry>
        </mxCell>
        <mxCell id="t_3xQdhQJBQ7S3GY_MiX-11" value="Services" style="rounded=0;whiteSpace=wrap;html=1;" vertex="1" parent="1">
          <mxGeometry x="420" y="290" width="300" height="30" as="geometry" />
        </mxCell>
        <mxCell id="t_3xQdhQJBQ7S3GY_MiX-12" value="Model" style="rounded=0;whiteSpace=wrap;html=1;" vertex="1" parent="1">
          <mxGeometry x="120" y="290" width="300" height="30" as="geometry" />
        </mxCell>
        <mxCell id="t_3xQdhQJBQ7S3GY_MiX-13" value="CSV" style="rounded=0;whiteSpace=wrap;html=1;" vertex="1" parent="1">
          <mxGeometry x="120" y="660" width="600" height="30" as="geometry" />
        </mxCell>
        <mxCell id="t_3xQdhQJBQ7S3GY_MiX-14" value="LiveCharts2" style="rounded=0;whiteSpace=wrap;html=1;" vertex="1" parent="1">
          <mxGeometry x="120" y="720" width="600" height="30" as="geometry" />
        </mxCell>
        <mxCell id="t_3xQdhQJBQ7S3GY_MiX-15" value="IGA_Common" style="rounded=0;whiteSpace=wrap;html=1;" vertex="1" parent="1">
          <mxGeometry x="120" y="690" width="600" height="30" as="geometry" />
        </mxCell>
        <mxCell id="t_3xQdhQJBQ7S3GY_MiX-17" value="" style="endArrow=classic;startArrow=classic;html=1;rounded=0;entryX=0.5;entryY=1;entryDx=0;entryDy=0;exitX=0.5;exitY=0;exitDx=0;exitDy=0;" edge="1" parent="1" source="t_3xQdhQJBQ7S3GY_MiX-12" target="t_3xQdhQJBQ7S3GY_MiX-3">
          <mxGeometry width="50" height="50" relative="1" as="geometry">
            <mxPoint x="450" y="450" as="sourcePoint" />
            <mxPoint x="500" y="400" as="targetPoint" />
          </mxGeometry>
        </mxCell>
        <mxCell id="t_3xQdhQJBQ7S3GY_MiX-18" value="" style="endArrow=classic;startArrow=classic;html=1;rounded=0;entryX=0.5;entryY=1;entryDx=0;entryDy=0;exitX=0.5;exitY=0;exitDx=0;exitDy=0;" edge="1" parent="1" source="t_3xQdhQJBQ7S3GY_MiX-11" target="t_3xQdhQJBQ7S3GY_MiX-3">
          <mxGeometry width="50" height="50" relative="1" as="geometry">
            <mxPoint x="400" y="400" as="sourcePoint" />
            <mxPoint x="550" y="300" as="targetPoint" />
          </mxGeometry>
        </mxCell>
      </root>
    </mxGraphModel>
  </diagram>
  <diagram id="8VS-EZ7FtIgBft2ER96T" name="Event and Process Sequential Diagram">
    <mxGraphModel dx="1659" dy="971" grid="1" gridSize="10" guides="1" tooltips="1" connect="1" arrows="1" fold="1" page="1" pageScale="1" pageWidth="827" pageHeight="1169" math="0" shadow="0">
      <root>
        <mxCell id="0" />
        <mxCell id="1" parent="0" />
        <mxCell id="wUC79p5OvyIMpoz_HqnB-2" value="View" style="rounded=0;whiteSpace=wrap;html=1;" vertex="1" parent="1">
          <mxGeometry x="290" y="160" width="120" height="60" as="geometry" />
        </mxCell>
        <mxCell id="wUC79p5OvyIMpoz_HqnB-5" value="ViewModel" style="rounded=0;whiteSpace=wrap;html=1;align=left;verticalAlign=top;" vertex="1" parent="1">
          <mxGeometry x="250" y="300" width="410" height="190" as="geometry" />
        </mxCell>
        <mxCell id="wUC79p5OvyIMpoz_HqnB-6" value="Command" style="rounded=0;whiteSpace=wrap;html=1;" vertex="1" parent="1">
          <mxGeometry x="290" y="340" width="120" height="60" as="geometry" />
        </mxCell>
        <mxCell id="wUC79p5OvyIMpoz_HqnB-3" value="" style="endArrow=classic;html=1;rounded=0;exitX=0.5;exitY=1;exitDx=0;exitDy=0;edgeStyle=orthogonalEdgeStyle;jumpStyle=arc;curved=0;entryX=0.5;entryY=0;entryDx=0;entryDy=0;" edge="1" parent="1" source="wUC79p5OvyIMpoz_HqnB-2" target="wUC79p5OvyIMpoz_HqnB-6">
          <mxGeometry width="50" height="50" relative="1" as="geometry">
            <mxPoint x="290" y="380" as="sourcePoint" />
            <mxPoint x="350" y="300" as="targetPoint" />
            <Array as="points">
              <mxPoint x="350" y="310" />
              <mxPoint x="350" y="310" />
            </Array>
          </mxGeometry>
        </mxCell>
        <mxCell id="wUC79p5OvyIMpoz_HqnB-4" value="1. Event Occured&lt;div&gt;(Pressed Button, etc.)&lt;/div&gt;" style="edgeLabel;html=1;align=center;verticalAlign=middle;resizable=0;points=[];" vertex="1" connectable="0" parent="wUC79p5OvyIMpoz_HqnB-3">
          <mxGeometry x="-0.0808" relative="1" as="geometry">
            <mxPoint as="offset" />
          </mxGeometry>
        </mxCell>
        <mxCell id="wUC79p5OvyIMpoz_HqnB-9" value="Model / Services" style="rounded=0;whiteSpace=wrap;html=1;align=left;verticalAlign=top;" vertex="1" parent="1">
          <mxGeometry x="250" y="520" width="410" height="150" as="geometry" />
        </mxCell>
        <mxCell id="wUC79p5OvyIMpoz_HqnB-10" value="Processing Function" style="rounded=0;whiteSpace=wrap;html=1;" vertex="1" parent="1">
          <mxGeometry x="290" y="555" width="120" height="60" as="geometry" />
        </mxCell>
        <mxCell id="wUC79p5OvyIMpoz_HqnB-11" value="" style="endArrow=classic;html=1;rounded=0;exitX=0.5;exitY=1;exitDx=0;exitDy=0;edgeStyle=orthogonalEdgeStyle;jumpStyle=arc;curved=0;entryX=0.5;entryY=0;entryDx=0;entryDy=0;" edge="1" parent="1" source="wUC79p5OvyIMpoz_HqnB-6" target="wUC79p5OvyIMpoz_HqnB-10">
          <mxGeometry width="50" height="50" relative="1" as="geometry">
            <mxPoint x="370" y="290" as="sourcePoint" />
            <mxPoint x="370" y="410" as="targetPoint" />
            <Array as="points">
              <mxPoint x="350" y="480" />
              <mxPoint x="350" y="480" />
            </Array>
          </mxGeometry>
        </mxCell>
        <mxCell id="wUC79p5OvyIMpoz_HqnB-12" value="2. Call Function on Related Model" style="edgeLabel;html=1;align=center;verticalAlign=middle;resizable=0;points=[];" vertex="1" connectable="0" parent="wUC79p5OvyIMpoz_HqnB-11">
          <mxGeometry x="-0.0808" relative="1" as="geometry">
            <mxPoint as="offset" />
          </mxGeometry>
        </mxCell>
        <mxCell id="wUC79p5OvyIMpoz_HqnB-15" value="Data Binded&lt;div&gt;Property&lt;/div&gt;" style="rounded=0;whiteSpace=wrap;html=1;" vertex="1" parent="1">
          <mxGeometry x="430" y="340" width="120" height="60" as="geometry" />
        </mxCell>
        <mxCell id="wUC79p5OvyIMpoz_HqnB-16" value="" style="endArrow=classic;html=1;rounded=0;exitX=1;exitY=0.5;exitDx=0;exitDy=0;edgeStyle=orthogonalEdgeStyle;jumpStyle=arc;curved=0;entryX=0.5;entryY=1;entryDx=0;entryDy=0;" edge="1" parent="1" source="wUC79p5OvyIMpoz_HqnB-10" target="wUC79p5OvyIMpoz_HqnB-15">
          <mxGeometry width="50" height="50" relative="1" as="geometry">
            <mxPoint x="430" y="510" as="sourcePoint" />
            <mxPoint x="430" y="665" as="targetPoint" />
            <Array as="points">
              <mxPoint x="490" y="585" />
            </Array>
          </mxGeometry>
        </mxCell>
        <mxCell id="wUC79p5OvyIMpoz_HqnB-17" value="3. Return Value" style="edgeLabel;html=1;align=center;verticalAlign=middle;resizable=0;points=[];" vertex="1" connectable="0" parent="wUC79p5OvyIMpoz_HqnB-16">
          <mxGeometry x="-0.0808" relative="1" as="geometry">
            <mxPoint as="offset" />
          </mxGeometry>
        </mxCell>
        <mxCell id="wUC79p5OvyIMpoz_HqnB-18" value="4. Apply to Property" style="edgeLabel;html=1;align=center;verticalAlign=middle;resizable=0;points=[];" vertex="1" connectable="0" parent="wUC79p5OvyIMpoz_HqnB-16">
          <mxGeometry x="0.7358" y="-2" relative="1" as="geometry">
            <mxPoint as="offset" />
          </mxGeometry>
        </mxCell>
        <mxCell id="wUC79p5OvyIMpoz_HqnB-19" value="" style="endArrow=classic;html=1;rounded=0;exitX=0.5;exitY=0;exitDx=0;exitDy=0;edgeStyle=orthogonalEdgeStyle;jumpStyle=arc;curved=0;entryX=1;entryY=0.5;entryDx=0;entryDy=0;startArrow=classic;startFill=1;" edge="1" parent="1" source="wUC79p5OvyIMpoz_HqnB-15" target="wUC79p5OvyIMpoz_HqnB-2">
          <mxGeometry width="50" height="50" relative="1" as="geometry">
            <mxPoint x="620" y="425" as="sourcePoint" />
            <mxPoint x="700" y="240" as="targetPoint" />
            <Array as="points">
              <mxPoint x="490" y="190" />
            </Array>
          </mxGeometry>
        </mxCell>
        <mxCell id="wUC79p5OvyIMpoz_HqnB-20" value="5. Apply to UI / UI Data to Proerpty" style="edgeLabel;html=1;align=center;verticalAlign=middle;resizable=0;points=[];" vertex="1" connectable="0" parent="wUC79p5OvyIMpoz_HqnB-19">
          <mxGeometry x="-0.0808" relative="1" as="geometry">
            <mxPoint as="offset" />
          </mxGeometry>
        </mxCell>
        <mxCell id="wUC79p5OvyIMpoz_HqnB-22" value="Infrastructure" style="rounded=0;whiteSpace=wrap;html=1;align=left;verticalAlign=top;" vertex="1" parent="1">
          <mxGeometry x="240" y="720" width="410" height="150" as="geometry" />
        </mxCell>
        <mxCell id="wUC79p5OvyIMpoz_HqnB-23" value="" style="endArrow=classic;html=1;rounded=0;exitX=0.5;exitY=1;exitDx=0;exitDy=0;edgeStyle=orthogonalEdgeStyle;jumpStyle=arc;curved=0;entryX=0.27;entryY=0.002;entryDx=0;entryDy=0;entryPerimeter=0;" edge="1" parent="1" source="wUC79p5OvyIMpoz_HqnB-10" target="wUC79p5OvyIMpoz_HqnB-22">
          <mxGeometry width="50" height="50" relative="1" as="geometry">
            <mxPoint x="360" y="730" as="sourcePoint" />
            <mxPoint x="370" y="700" as="targetPoint" />
            <Array as="points">
              <mxPoint x="350" y="720" />
            </Array>
          </mxGeometry>
        </mxCell>
        <mxCell id="wUC79p5OvyIMpoz_HqnB-24" value="Interaction With&lt;div&gt;Infrastructure&lt;/div&gt;&lt;div&gt;(Ext. Lib, etc.)&lt;/div&gt;" style="edgeLabel;html=1;align=center;verticalAlign=middle;resizable=0;points=[];" vertex="1" connectable="0" parent="wUC79p5OvyIMpoz_HqnB-23">
          <mxGeometry x="-0.0808" relative="1" as="geometry">
            <mxPoint as="offset" />
          </mxGeometry>
        </mxCell>
      </root>
    </mxGraphModel>
  </diagram>
</mxfile>
